<svg width="38" height="38" viewBox="0 0 38 38" fill="none" xmlns="http://www.w3.org/2000/svg">
<g clip-path="url(#clip0_3347_1923)">
<path d="M28.3679 16.757C31.9304 13.1945 32.153 8.95665 32.0417 7.06704C32.0232 6.77904 31.9004 6.50764 31.6964 6.30358C31.4923 6.09951 31.2209 5.97674 30.9329 5.95821C29.0433 5.84689 24.8084 6.06657 21.2429 9.63204L11.875 18.9999L19 26.1249L28.3679 16.757Z" stroke="#070707" stroke-width="2.5" stroke-linecap="round" stroke-linejoin="round"/>
<path d="M20.1856 10.6875H11.0344C10.7199 10.6876 10.4182 10.8126 10.1957 11.0348L5.09689 16.1337C4.94121 16.2897 4.83203 16.486 4.78156 16.7005C4.73108 16.915 4.74132 17.1394 4.8111 17.3485C4.88089 17.5575 5.00749 17.743 5.17672 17.8842C5.34595 18.0254 5.55113 18.1168 5.76931 18.148L11.8731 19" stroke="#070707" stroke-width="2.5" stroke-linecap="round" stroke-linejoin="round"/>
<path d="M27.3125 17.8125V26.9637C27.3124 27.2782 27.1874 27.5798 26.9652 27.8023L21.8663 32.9012C21.7103 33.0568 21.514 33.166 21.2995 33.2165C21.085 33.267 20.8606 33.2567 20.6515 33.187C20.4425 33.1172 20.257 32.9906 20.1158 32.8213C19.9746 32.6521 19.8832 32.4469 19.852 32.2287L19 26.125" stroke="#070707" stroke-width="2.5" stroke-linecap="round" stroke-linejoin="round"/>
<path d="M14.0362 27.8796C13.4618 29.1399 11.5262 32.0626 5.9375 32.0626C5.9375 26.4739 8.86023 24.5383 10.1205 23.9639" stroke="#070707" stroke-width="2.5" stroke-linecap="round" stroke-linejoin="round"/>
</g>
<defs>
<clipPath id="clip0_3347_1923">
<rect width="38" height="38" fill="white"/>
</clipPath>
</defs>
</svg>
