<svg width="48" height="48" viewBox="0 0 48 48" fill="none" xmlns="http://www.w3.org/2000/svg">
<path d="M43.0612 20.5614L34.0613 29.5613C33.7798 29.8428 33.398 30.0009 33 30.0009C32.602 30.0009 32.2202 29.8428 31.9387 29.5613C31.6573 29.2799 31.4992 28.8981 31.4992 28.5001C31.4992 28.1021 31.6573 27.7203 31.9387 27.4388L38.3794 21.0001H30.9375C27.2787 20.9991 23.7234 22.2142 20.8306 24.4543C17.9378 26.6944 15.8716 29.8325 14.9569 33.3751C14.8574 33.7605 14.6089 34.0906 14.2661 34.2928C13.9233 34.495 13.5141 34.5527 13.1287 34.4532C12.7434 34.3538 12.4133 34.1053 12.2111 33.7624C12.0089 33.4196 11.9512 33.0105 12.0506 32.6251C13.1299 28.4373 15.5714 24.7275 18.9907 22.0798C22.41 19.432 26.6129 17.9968 30.9375 18.0001H38.3831L31.9387 11.5614C31.7994 11.422 31.6888 11.2565 31.6134 11.0744C31.538 10.8924 31.4992 10.6972 31.4992 10.5001C31.4992 10.303 31.538 10.1078 31.6134 9.92576C31.6888 9.74367 31.7994 9.57822 31.9387 9.43885C32.2202 9.15739 32.602 8.99927 33 8.99927C33.1971 8.99927 33.3923 9.03809 33.5743 9.11351C33.7564 9.18894 33.9219 9.29949 34.0613 9.43885L43.0612 18.4389C43.2007 18.5782 43.3114 18.7436 43.3868 18.9257C43.4623 19.1078 43.5012 19.303 43.5012 19.5001C43.5012 19.6972 43.4623 19.8924 43.3868 20.0745C43.3114 20.2566 43.2007 20.422 43.0612 20.5614ZM36 39.0001H7.5V16.5001C7.5 16.1023 7.34196 15.7207 7.06066 15.4394C6.77936 15.1581 6.39782 15.0001 6 15.0001C5.60218 15.0001 5.22064 15.1581 4.93934 15.4394C4.65804 15.7207 4.5 16.1023 4.5 16.5001V39.0001C4.5 39.7957 4.81607 40.5588 5.37868 41.1214C5.94129 41.684 6.70435 42.0001 7.5 42.0001H36C36.3978 42.0001 36.7794 41.8421 37.0607 41.5608C37.342 41.2795 37.5 40.8979 37.5 40.5001C37.5 40.1023 37.342 39.7207 37.0607 39.4394C36.7794 39.1581 36.3978 39.0001 36 39.0001Z" fill="#070707"/>
</svg>
