<svg width="16" height="16" viewBox="0 0 16 16" fill="none" xmlns="http://www.w3.org/2000/svg">
<path d="M14.3558 13.6462L11.2265 10.5174C12.1335 9.42847 12.5858 8.03177 12.4892 6.61786C12.3927 5.20395 11.7548 3.88168 10.7082 2.92613C9.66158 1.97058 8.28687 1.45531 6.87004 1.48751C5.4532 1.51971 4.10332 2.0969 3.10121 3.09901C2.0991 4.10113 1.5219 5.451 1.4897 6.86784C1.4575 8.28468 1.97278 9.65938 2.92833 10.706C3.88388 11.7526 5.20614 12.3905 6.62005 12.487C8.03397 12.5836 9.43066 12.1313 10.5196 11.2243L13.6483 14.3537C13.6948 14.4001 13.75 14.437 13.8106 14.4621C13.8713 14.4872 13.9364 14.5002 14.0021 14.5002C14.0678 14.5002 14.1328 14.4872 14.1935 14.4621C14.2542 14.437 14.3094 14.4001 14.3558 14.3537C14.4023 14.3072 14.4392 14.252 14.4643 14.1913C14.4894 14.1307 14.5024 14.0656 14.5024 13.9999C14.5024 13.9342 14.4894 13.8691 14.4643 13.8085C14.4392 13.7478 14.4023 13.6926 14.3558 13.6462ZM2.5021 6.9999C2.5021 6.10988 2.76602 5.23985 3.26048 4.49983C3.75495 3.75981 4.45775 3.18304 5.28002 2.84244C6.10229 2.50185 7.00709 2.41273 7.88 2.58636C8.75292 2.76 9.55474 3.18858 10.1841 3.81792C10.8134 4.44725 11.242 5.24908 11.4156 6.12199C11.5893 6.99491 11.5001 7.89971 11.1596 8.72197C10.819 9.54424 10.2422 10.247 9.50216 10.7415C8.76214 11.236 7.89211 11.4999 7.0021 11.4999C5.80903 11.4986 4.6652 11.024 3.82158 10.1804C2.97795 9.33679 2.50342 8.19297 2.5021 6.9999Z" fill="#070707"/>
</svg>
