<svg width="171" height="34" viewBox="0 0 171 34" fill="none" xmlns="http://www.w3.org/2000/svg">
<g clip-path="url(#clip0_3331_2774)">
<rect x="2.35593" y="2.42429" width="165.537" height="28.5268" fill="white" stroke="#070707" stroke-width="1.02436"/>
<rect x="0.5" y="29.4482" width="3.35808" height="3.35808" fill="#FCFF55" stroke="#070707" stroke-width="1.02436"/>
<rect x="0.5" y="0.568848" width="3.35808" height="3.35808" fill="#FCFF55" stroke="#070707" stroke-width="1.02436"/>
<rect x="166.387" y="29.4482" width="3.35808" height="3.35808" fill="#FCFF55" stroke="#070707" stroke-width="1.02436"/>
<rect x="166.387" y="0.568848" width="3.35808" height="3.35808" fill="#FCFF55" stroke="#070707" stroke-width="1.02436"/>
<path d="M23.043 10.805C21.8831 10.2511 20.5298 9.97241 18.9797 9.97241C17.4297 9.97241 16.0764 10.2511 14.9165 10.805C13.7565 11.3589 12.8577 12.1404 12.2133 13.1429C11.5722 14.1419 11.25 15.3143 11.25 16.6497C11.25 17.9852 11.5722 19.1576 12.2166 20.16C12.8611 21.1625 13.7633 21.9406 14.9198 22.4979C16.0798 23.0518 17.4331 23.3305 18.9831 23.3305C20.5332 23.3305 21.8865 23.0518 23.0464 22.4979C24.2064 21.944 25.1086 21.1625 25.753 20.16C26.3975 19.1576 26.7197 17.9886 26.7197 16.6497C26.7197 15.3109 26.3975 14.1419 25.753 13.1395C25.1086 12.137 24.2064 11.3589 23.0464 10.8016L23.043 10.805ZM21.9068 18.1381C21.6423 18.5527 21.259 18.8687 20.7604 19.0896C20.2618 19.3105 19.6683 19.4226 18.9797 19.4226C18.2912 19.4226 17.6977 19.3139 17.1991 19.0896C16.7005 18.8687 16.3206 18.5527 16.0527 18.1381C15.7881 17.7236 15.6559 17.2308 15.6559 16.6497C15.6559 16.0687 15.7881 15.5759 16.0527 15.1614C16.3172 14.7468 16.7005 14.4308 17.1991 14.2099C17.6977 13.989 18.2912 13.8769 18.9797 13.8769C19.6683 13.8769 20.2618 13.9856 20.7604 14.2099C21.259 14.4308 21.6389 14.7468 21.9068 15.1614C22.1714 15.5759 22.307 16.0687 22.307 16.6497C22.307 17.2308 22.1748 17.7236 21.9068 18.1381Z" fill="#FCFF55" stroke="#070707" stroke-width="1.02436"/>
<path d="M41.7844 17.1768C41.7844 17.6423 41.7064 18.0433 41.547 18.3831C41.3876 18.7229 41.14 18.9812 40.8008 19.1545C40.4617 19.3312 40.0207 19.4161 39.4781 19.4161C38.9354 19.4161 38.5114 19.3244 38.1722 19.1443C37.8331 18.9642 37.5821 18.7059 37.4159 18.3729C37.2531 18.0399 37.1683 17.6389 37.1683 17.1734V10.2786H32.793V17.4146C32.793 18.604 33.0745 19.6404 33.6341 20.5239C34.1938 21.4075 34.9738 22.0939 35.9744 22.59C36.975 23.0827 38.1417 23.3274 39.4781 23.3274C40.8144 23.3274 41.9947 23.0793 42.9987 22.59C43.9992 22.0973 44.7759 21.4075 45.3322 20.5239C45.885 19.6404 46.1632 18.604 46.1632 17.4146V10.2786H41.7878V17.1768H41.7844Z" fill="#FCFF55" stroke="#070707" stroke-width="1.02436"/>
<path d="M52.6367 14.1864H57.2155V23.0216H61.5909V14.1864H66.1697V10.2786H52.6367V14.1864Z" fill="#FCFF55" stroke="#070707" stroke-width="1.02436"/>
<path d="M77.7855 10.2786H73.4102V23.0216H85.2812V19.1137H77.7855V10.2786Z" fill="#FCFF55" stroke="#070707" stroke-width="1.02436"/>
<path d="M95.8402 10.2786H91.4648V23.0216H95.8402V10.2786Z" fill="#FCFF55" stroke="#070707" stroke-width="1.02436"/>
<path d="M114.115 17.9821L109.163 10.2786H103.516V23.0216H107.755V15.0495L112.877 23.0216H118.354V10.2786H114.115V17.9821Z" fill="#FCFF55" stroke="#070707" stroke-width="1.02436"/>
<path d="M129.772 18.1622H136.602V15.1379H129.772L129.544 13.7447H137.145V10.2786H124.918L125.851 16.6501L124.918 23.0216H137.23V19.5555H129.544L129.772 18.1622Z" fill="#FCFF55" stroke="#070707" stroke-width="1.02436"/>
<path fill-rule="evenodd" clip-rule="evenodd" d="M157.704 13.2866C157.06 12.3352 156.157 11.5944 155.001 11.0711C153.841 10.5444 152.488 10.2793 150.941 10.2793H144.191V23.0223H150.941C152.491 23.0223 153.844 22.7606 155.001 22.2305C156.161 21.7038 157.063 20.963 157.704 20.0048C158.348 19.0465 158.671 17.9285 158.671 16.6474C158.671 15.3663 158.348 14.2381 157.704 13.2866ZM150.977 19.0965C149.914 19.2394 148.23 19.0965 148.23 19.0965V14.1692H150.977C151.598 14.1692 152.134 14.2678 152.578 14.4683C153.026 14.6654 153.368 14.9474 153.606 15.311C153.843 15.6746 153.963 16.1004 153.962 16.6363C153.96 17.1671 153.908 17.512 153.606 17.948C152.984 18.8433 152.229 18.9382 151.276 19.0581C151.178 19.0703 151.079 19.0829 150.977 19.0965Z" fill="#FCFF55"/>
<path d="M155.001 11.0711L154.789 11.5374L154.79 11.5377L155.001 11.0711ZM144.191 10.2793V9.76711H143.679V10.2793H144.191ZM144.191 23.0223H143.679V23.5345H144.191V23.0223ZM155.001 22.2305L154.789 21.7642L154.787 21.7649L155.001 22.2305ZM157.704 20.0048L157.279 19.7189L157.278 19.72L157.704 20.0048ZM148.23 19.0965H147.717V19.5671L148.186 19.6069L148.23 19.0965ZM150.977 19.0965L151.045 19.6042H151.045L150.977 19.0965ZM148.23 14.1692V13.6571H147.717V14.1692H148.23ZM152.578 14.4683L152.367 14.9352L152.371 14.937L152.578 14.4683ZM153.606 15.311L154.034 15.031V15.031L153.606 15.311ZM153.962 16.6363L153.449 16.635L153.962 16.6363ZM153.606 17.948L153.185 17.6558L153.185 17.6558L153.606 17.948ZM151.276 19.0581L151.212 18.5499H151.212L151.276 19.0581ZM154.79 11.5377C155.869 12.026 156.694 12.7084 157.28 13.5739L158.128 12.9994C157.425 11.962 156.446 11.1627 155.212 10.6044L154.79 11.5377ZM150.941 10.7915C152.429 10.7915 153.708 11.0465 154.789 11.5374L155.213 10.6047C153.974 10.0422 152.546 9.76711 150.941 9.76711V10.7915ZM144.191 10.7915H150.941V9.76711H144.191V10.7915ZM144.704 23.0223V10.2793H143.679V23.0223H144.704ZM150.941 22.5101H144.191V23.5345H150.941V22.5101ZM154.787 21.7649C153.711 22.2581 152.434 22.5101 150.941 22.5101V23.5345C152.548 23.5345 153.977 23.2632 155.214 22.6961L154.787 21.7649ZM157.278 19.72C156.696 20.5902 155.872 21.2723 154.789 21.7642L155.213 22.6969C156.449 22.1353 157.43 21.3358 158.13 20.2895L157.278 19.72ZM158.159 16.6474C158.159 17.8381 157.861 18.8542 157.279 19.7189L158.129 20.2906C158.836 19.2388 159.183 18.0189 159.183 16.6474H158.159ZM157.28 13.5739C157.86 14.4302 158.159 15.4554 158.159 16.6474H159.183C159.183 15.2772 158.837 14.0461 158.128 12.9994L157.28 13.5739ZM148.23 19.0965C148.186 19.6069 148.186 19.6069 148.186 19.6069C148.186 19.6069 148.186 19.6069 148.187 19.6069C148.187 19.6069 148.187 19.6069 148.187 19.6069C148.187 19.607 148.188 19.607 148.188 19.607C148.189 19.6071 148.191 19.6072 148.192 19.6074C148.196 19.6077 148.201 19.6081 148.208 19.6086C148.221 19.6097 148.241 19.6113 148.266 19.6131C148.315 19.6169 148.387 19.6221 148.477 19.6278C148.655 19.6392 148.904 19.6529 149.188 19.662C149.747 19.6801 150.469 19.6815 151.045 19.6042L150.909 18.5889C150.421 18.6544 149.77 18.6559 149.221 18.6382C148.951 18.6295 148.712 18.6164 148.542 18.6055C148.457 18.6 148.389 18.5952 148.343 18.5917C148.319 18.5899 148.302 18.5885 148.29 18.5876C148.284 18.5871 148.28 18.5867 148.277 18.5865C148.275 18.5864 148.274 18.5863 148.274 18.5862C148.273 18.5862 148.273 18.5862 148.273 18.5862C148.273 18.5862 148.273 18.5862 148.273 18.5862C148.273 18.5862 148.273 18.5862 148.273 18.5862C148.273 18.5862 148.273 18.5862 148.23 19.0965ZM147.717 14.1692V19.0965H148.742V14.1692H147.717ZM150.977 13.6571H148.23V14.6814H150.977V13.6571ZM152.788 14.0014C152.261 13.7635 151.649 13.6571 150.977 13.6571V14.6814C151.546 14.6814 152.006 14.772 152.367 14.9351L152.788 14.0014ZM154.034 15.031C153.737 14.5748 153.312 14.2318 152.784 13.9995L152.371 14.937C152.739 15.0989 153 15.32 153.177 15.591L154.034 15.031ZM154.474 16.6376C154.475 16.0184 154.335 15.4911 154.034 15.031L153.177 15.591C153.351 15.8581 153.451 16.1824 153.449 16.635L154.474 16.6376ZM154.026 18.2401C154.411 17.6854 154.472 17.2226 154.474 16.6376L153.449 16.635C153.448 17.1116 153.405 17.3386 153.185 17.6558L154.026 18.2401ZM151.34 19.5662C151.802 19.5081 152.296 19.4489 152.751 19.2709C153.232 19.0831 153.657 18.7711 154.026 18.2401L153.185 17.6558C152.932 18.0201 152.669 18.2032 152.379 18.3167C152.063 18.4399 151.703 18.4881 151.212 18.5499L151.34 19.5662ZM151.045 19.6042C151.144 19.5908 151.242 19.5786 151.34 19.5662L151.212 18.5499C151.115 18.5621 151.013 18.5749 150.909 18.5889L151.045 19.6042Z" fill="#070707"/>
</g>
<defs>
<clipPath id="clip0_3331_2774">
<rect width="170.243" height="33.3754" fill="white"/>
</clipPath>
</defs>
</svg>
