<svg width="38" height="38" viewBox="0 0 38 38" fill="none" xmlns="http://www.w3.org/2000/svg">
<rect width="38" height="38" rx="19" fill="#FCFF55"/>
<path d="M22.7716 10.16C20.2617 10.16 18.2216 12.2001 18.2216 14.71C18.2216 14.9994 18.2837 15.2689 18.3363 15.5413C12.7307 15.0462 10.0186 11.565 9.64207 11.0472C9.6166 11.0121 9.58276 10.9839 9.54363 10.9652C9.50449 10.9465 9.46131 10.9379 9.41801 10.9402C9.37471 10.9425 9.33266 10.9556 9.2957 10.9782C9.25874 11.0009 9.22803 11.0324 9.20637 11.07C8.81739 11.7451 8.60156 12.5851 8.60156 13.41C8.60156 14.7583 9.24282 16.0197 10.2398 16.8438C9.95371 16.7971 9.71509 16.7353 9.52883 16.6732C9.16349 16.5514 9.00578 16.4437 9.00578 16.4437C8.96662 16.4176 8.92112 16.4026 8.87412 16.4003C8.82712 16.3981 8.78038 16.4086 8.73889 16.4308C8.69741 16.453 8.66272 16.486 8.63854 16.5264C8.61435 16.5668 8.60157 16.6129 8.60156 16.66C8.60156 18.5419 9.78895 20.1403 11.4494 20.7789C11.3634 20.7835 11.2893 20.82 11.2016 20.82C10.9799 20.82 10.6413 20.8004 10.4378 20.7702C10.3923 20.7635 10.3459 20.769 10.3032 20.7861C10.2606 20.8032 10.2232 20.8312 10.1949 20.8675C10.1666 20.9037 10.1484 20.9468 10.1422 20.9923C10.136 21.0379 10.142 21.0842 10.1595 21.1267L10.1814 21.1795C10.1815 21.18 10.1817 21.1806 10.1819 21.1811C10.8419 22.7418 12.4496 23.8235 14.1961 24.0913C12.8388 25.12 11.0738 25.76 9.25156 25.76H8.86156C8.80577 25.76 8.75147 25.778 8.70667 25.8112C8.66187 25.8445 8.62896 25.8913 8.61279 25.9447C8.59662 25.9981 8.59806 26.0553 8.61689 26.1078C8.63571 26.1603 8.67093 26.2054 8.71734 26.2363C10.334 27.3141 12.4891 27.84 14.7116 27.84C21.6729 27.84 27.3216 22.1914 27.3216 15.23C27.3216 15.2292 27.3216 15.2283 27.3216 15.2275C27.3216 15.2275 27.32 15.0685 27.318 14.9025C27.3168 14.8013 27.3155 14.7463 27.3145 14.6739C28.5863 13.9143 29.3498 12.9159 29.3498 12.9159C29.3824 12.8722 29.4005 12.8193 29.4015 12.7648C29.4024 12.7102 29.3862 12.6568 29.3551 12.6119C29.324 12.5671 29.2796 12.5332 29.2281 12.515C29.1767 12.4969 29.1208 12.4953 29.0684 12.5107C29.0684 12.5107 28.2281 12.7136 27.3403 12.8138C28.3757 11.9483 28.7384 11.0223 28.7384 11.0223C28.755 10.9727 28.7562 10.9193 28.742 10.869C28.7278 10.8187 28.6988 10.7739 28.6587 10.7403C28.6186 10.7068 28.5694 10.6861 28.5174 10.6809C28.4654 10.6758 28.413 10.6864 28.3671 10.7115C28.3671 10.7115 27.0811 11.3863 25.921 11.4453C25.1031 10.6561 23.9971 10.16 22.7716 10.16ZM22.7716 10.68C23.9042 10.68 24.9234 11.1474 25.6559 11.8988C25.6809 11.9243 25.7108 11.9444 25.7438 11.9578C25.7768 11.9713 25.8122 11.9778 25.8479 11.977C26.6626 11.9574 27.3748 11.7131 27.9086 11.4879C27.656 11.862 27.238 12.3434 26.5629 12.7798C26.5112 12.8133 26.4731 12.864 26.4554 12.923C26.4376 12.982 26.4413 13.0453 26.4659 13.1018C26.4795 13.1329 26.4945 13.1813 26.5187 13.2429C26.5382 13.2924 26.5725 13.3347 26.6168 13.3641C26.6611 13.3936 26.7133 13.4087 26.7665 13.4075C27.3435 13.3947 27.9278 13.2987 28.3854 13.2054C28.0407 13.5417 27.5458 13.9614 26.925 14.3114C26.8832 14.3349 26.8488 14.3695 26.8255 14.4114C26.8022 14.4532 26.791 14.5007 26.7929 14.5485C26.7929 14.5485 26.796 14.7429 26.798 14.9086C26.8 15.0742 26.8016 15.2325 26.8016 15.2325C26.8002 21.9117 21.391 27.32 14.7116 27.32C12.9175 27.32 11.1989 26.9372 9.79746 26.2297C11.7612 26.106 13.6424 25.3607 15.0147 24.134C15.0536 24.0993 15.0812 24.0538 15.0938 24.0032C15.1065 23.9527 15.1037 23.8995 15.0858 23.8506C15.068 23.8017 15.0358 23.7593 14.9935 23.7288C14.9512 23.6984 14.9007 23.6814 14.8487 23.68C13.2081 23.6341 11.6305 22.6618 10.8781 21.3187C10.9908 21.3242 11.1053 21.34 11.2016 21.34C11.7777 21.34 12.3298 21.2494 12.8484 21.0653C12.905 21.0453 12.9529 21.0064 12.9841 20.9551C13.0153 20.9037 13.0277 20.8432 13.0193 20.7838C13.011 20.7244 12.9823 20.6697 12.9382 20.629C12.8941 20.5883 12.8372 20.5641 12.7773 20.5605C10.8757 20.4438 9.36269 18.9558 9.16168 17.0759C9.25424 17.1168 9.23445 17.1235 9.3643 17.1668C9.77896 17.305 10.3927 17.44 11.2016 17.44C11.2606 17.44 11.318 17.4199 11.3641 17.383C11.4102 17.3461 11.4424 17.2946 11.4554 17.237C11.4683 17.1793 11.4612 17.119 11.4353 17.0659C11.4094 17.0128 11.3662 16.9701 11.3128 16.9449C10.0231 16.3363 9.12156 14.9094 9.12156 13.41C9.12156 12.8122 9.28048 12.2167 9.51207 11.6921C10.318 12.7013 13.1308 15.7462 18.6212 16.1045C18.6626 16.1072 18.704 16.0999 18.742 16.0833C18.7801 16.0668 18.8136 16.0414 18.8398 16.0092C18.8659 15.977 18.8841 15.9391 18.8926 15.8985C18.9011 15.8579 18.8998 15.8159 18.8888 15.7759C18.795 15.434 18.7416 15.0783 18.7416 14.71C18.7416 12.4811 20.5427 10.68 22.7716 10.68ZM22.7716 11.46C21.8127 11.46 20.9508 11.8806 20.3559 12.5432C20.3442 12.5558 20.3351 12.5707 20.3291 12.5869C20.3232 12.6031 20.3205 12.6203 20.3213 12.6375C20.3221 12.6548 20.3263 12.6717 20.3337 12.6873C20.3411 12.7029 20.3515 12.7168 20.3644 12.7284C20.3772 12.7399 20.3922 12.7487 20.4085 12.7544C20.4248 12.7601 20.4421 12.7624 20.4593 12.7614C20.4765 12.7603 20.4933 12.7558 20.5088 12.7482C20.5243 12.7405 20.5381 12.7299 20.5494 12.7168C21.0975 12.1064 21.8886 11.72 22.7716 11.72C23.5161 11.72 24.214 11.9925 24.7647 12.4883C24.7772 12.5009 24.7921 12.5108 24.8085 12.5174C24.8249 12.524 24.8425 12.5271 24.8602 12.5267C24.8779 12.5263 24.8953 12.5222 24.9113 12.5149C24.9274 12.5075 24.9418 12.4969 24.9536 12.4837C24.9655 12.4706 24.9745 12.4551 24.9802 12.4384C24.9858 12.4216 24.988 12.4039 24.9866 12.3863C24.9852 12.3686 24.9802 12.3515 24.9719 12.3358C24.9636 12.3202 24.9522 12.3064 24.9384 12.2954C24.3415 11.758 23.5798 11.46 22.7716 11.46ZM19.942 13.2785C19.9164 13.278 19.8913 13.285 19.8697 13.2988C19.8481 13.3125 19.8311 13.3323 19.8207 13.3557C19.7031 13.6109 19.6185 13.8831 19.5703 14.1682C19.5674 14.185 19.5679 14.2022 19.5717 14.2189C19.5755 14.2356 19.5825 14.2513 19.5924 14.2652C19.6023 14.2792 19.6148 14.291 19.6293 14.3001C19.6438 14.3092 19.6599 14.3154 19.6767 14.3182C19.6935 14.3211 19.7108 14.3206 19.7274 14.3168C19.7441 14.313 19.7598 14.306 19.7738 14.2961C19.8019 14.2762 19.821 14.2458 19.8268 14.2118C19.8711 13.9494 19.9487 13.6989 20.0568 13.4643C20.0661 13.4447 20.0704 13.4231 20.0692 13.4014C20.068 13.3797 20.0614 13.3586 20.05 13.3402C20.0386 13.3217 20.0227 13.3063 20.0039 13.2956C19.985 13.2848 19.9637 13.2789 19.942 13.2785ZM19.6495 14.578C19.6325 14.5782 19.6156 14.5819 19.5999 14.5886C19.5843 14.5954 19.5701 14.6052 19.5582 14.6175C19.5463 14.6297 19.537 14.6442 19.5307 14.6601C19.5244 14.676 19.5213 14.6929 19.5216 14.71C19.5216 14.8063 19.5331 14.8973 19.5403 14.9812C19.5414 14.9985 19.5459 15.0154 19.5536 15.031C19.5613 15.0465 19.5721 15.0603 19.5852 15.0717C19.5983 15.083 19.6136 15.0916 19.6301 15.0969C19.6466 15.1023 19.664 15.1042 19.6813 15.1027C19.6986 15.1013 19.7154 15.0963 19.7307 15.0882C19.7461 15.0801 19.7596 15.0691 19.7706 15.0557C19.7816 15.0423 19.7898 15.0268 19.7948 15.0101C19.7997 14.9935 19.8013 14.9761 19.7993 14.9588C19.7915 14.869 19.7816 14.7847 19.7816 14.71C19.7818 14.6926 19.7786 14.6753 19.7721 14.6592C19.7655 14.643 19.7558 14.6284 19.7435 14.616C19.7312 14.6037 19.7165 14.594 19.7004 14.5875C19.6842 14.5809 19.6669 14.5777 19.6495 14.578ZM24.8643 19.7785C24.8388 19.778 24.8138 19.7851 24.7923 19.7987C24.7708 19.8123 24.7538 19.832 24.7434 19.8552C23.4866 22.5695 21.1606 24.6903 18.3089 25.6752C18.2928 25.6808 18.2779 25.6895 18.2651 25.7009C18.2524 25.7122 18.242 25.726 18.2345 25.7414C18.2271 25.7567 18.2227 25.7734 18.2217 25.7905C18.2207 25.8075 18.2231 25.8246 18.2287 25.8407C18.2343 25.8569 18.243 25.8718 18.2543 25.8845C18.2657 25.8973 18.2795 25.9077 18.2948 25.9151C18.3102 25.9226 18.3269 25.9269 18.3439 25.9279C18.361 25.9289 18.3781 25.9266 18.3942 25.921C21.3135 24.9127 23.6925 22.7433 24.979 19.9648C24.9885 19.9452 24.9928 19.9235 24.9917 19.9017C24.9906 19.88 24.984 19.8589 24.9726 19.8403C24.9611 19.8217 24.9452 19.8064 24.9263 19.7956C24.9074 19.7848 24.886 19.7789 24.8643 19.7785ZM16.789 26.0825C16.7817 26.0827 16.7744 26.0835 16.7672 26.085C16.347 26.1646 15.9182 26.2197 15.4824 26.25C15.4654 26.2512 15.4487 26.2558 15.4335 26.2634C15.4182 26.271 15.4046 26.2816 15.3934 26.2945C15.3822 26.3074 15.3736 26.3224 15.3682 26.3386C15.3628 26.3548 15.3606 26.3719 15.3618 26.3889C15.363 26.406 15.3676 26.4226 15.3752 26.4379C15.3828 26.4532 15.3934 26.4668 15.4063 26.478C15.4192 26.4892 15.4342 26.4977 15.4504 26.5032C15.4666 26.5086 15.4837 26.5107 15.5007 26.5095C15.9464 26.4785 16.3854 26.422 16.8159 26.3404C16.8483 26.3347 16.8773 26.3169 16.8971 26.2907C16.9169 26.2644 16.926 26.2316 16.9226 26.1989C16.9192 26.1662 16.9035 26.136 16.8787 26.1144C16.8539 26.0928 16.8219 26.0814 16.789 26.0825ZM14.4541 26.2724C14.437 26.2721 14.4201 26.2751 14.4042 26.2813C14.3883 26.2875 14.3737 26.2968 14.3614 26.3087C14.3491 26.3205 14.3393 26.3346 14.3324 26.3503C14.3256 26.3659 14.3219 26.3828 14.3215 26.3998C14.3212 26.4169 14.3242 26.4339 14.3305 26.4498C14.3367 26.4657 14.346 26.4802 14.3578 26.4925C14.3697 26.5048 14.3838 26.5147 14.3995 26.5215C14.4151 26.5284 14.4319 26.5321 14.449 26.5324C14.5322 26.5341 14.6183 26.54 14.7116 26.54C14.7288 26.5402 14.7459 26.5371 14.7619 26.5306C14.7779 26.5242 14.7924 26.5147 14.8047 26.5026C14.8169 26.4905 14.8267 26.4761 14.8333 26.4602C14.84 26.4443 14.8434 26.4272 14.8434 26.41C14.8434 26.3928 14.84 26.3757 14.8333 26.3598C14.8267 26.3439 14.8169 26.3295 14.8047 26.3174C14.7924 26.3053 14.7779 26.2958 14.7619 26.2894C14.7459 26.2829 14.7288 26.2798 14.7116 26.28C14.6296 26.28 14.5451 26.2743 14.4541 26.2724Z" fill="#070707"/>
</svg>
