<svg width="38" height="38" viewBox="0 0 38 38" fill="none" xmlns="http://www.w3.org/2000/svg">
<rect width="38" height="38" rx="19" fill="#FCFF55"/>
<path d="M19.0016 11.72C15.8165 11.72 13.3789 11.8446 11.5281 12.0176C10.2353 12.1382 9.19563 13.1204 8.97633 14.3972C8.75627 15.6768 8.60156 17.2121 8.60156 19C8.60156 20.7879 8.75604 22.3235 8.97582 23.6033H8.97633C9.1959 24.88 10.2354 25.8615 11.5281 25.9824C13.3791 26.1552 15.8165 26.28 19.0016 26.28C22.1866 26.28 24.6242 26.1554 26.475 25.9824C27.7678 25.8618 28.8075 24.8796 29.0268 23.6028C29.2469 22.3232 29.4016 20.7879 29.4016 19C29.4016 17.2121 29.2471 15.6765 29.0273 14.3967H29.0268C28.8072 13.12 27.7677 12.1385 26.475 12.0176C24.624 11.8448 22.1866 11.72 19.0016 11.72ZM19.0016 12.24C22.173 12.24 24.5947 12.3641 26.4268 12.535C27.4861 12.6341 28.3336 13.4337 28.5144 14.485C28.7294 15.7366 28.8816 17.2421 28.8816 19C28.8816 20.7579 28.7296 22.2637 28.5144 23.515C28.3338 24.5663 27.486 25.3656 26.4268 25.4645C24.595 25.6357 22.173 25.76 19.0016 25.76C15.8301 25.76 13.4084 25.6359 11.5763 25.465C10.5171 25.3659 9.66953 24.5663 9.48871 23.515C9.27378 22.2634 9.12156 20.7579 9.12156 19C9.12156 17.2421 9.27353 15.7363 9.48871 14.485C9.66929 13.4338 10.5171 12.6344 11.5763 12.5355C13.4081 12.3643 15.8301 12.24 19.0016 12.24ZM19.0016 13.02C16.2824 13.02 13.8769 13.1133 11.8399 13.2957C11.8229 13.2973 11.8063 13.3021 11.7912 13.3101C11.7761 13.318 11.7627 13.3288 11.7517 13.3419C11.7408 13.355 11.7325 13.3702 11.7274 13.3865C11.7224 13.4028 11.7205 13.4199 11.7221 13.4369C11.7236 13.4539 11.7285 13.4705 11.7364 13.4856C11.7443 13.5007 11.7551 13.5141 11.7682 13.5251C11.7814 13.536 11.7965 13.5443 11.8128 13.5493C11.8291 13.5544 11.8462 13.5563 11.8632 13.5547C13.89 13.3732 16.2883 13.28 19.0016 13.28C20.4346 13.28 21.7773 13.3066 23.0265 13.3577C23.044 13.3593 23.0617 13.3573 23.0785 13.3518C23.0953 13.3463 23.1107 13.3375 23.124 13.3259C23.1372 13.3142 23.148 13.3 23.1555 13.2841C23.1631 13.2682 23.1674 13.2509 23.1681 13.2333C23.1688 13.2157 23.1659 13.1981 23.1595 13.1816C23.1532 13.1652 23.1436 13.1502 23.1313 13.1375C23.1191 13.1249 23.1043 13.1149 23.088 13.1081C23.0718 13.1014 23.0543 13.098 23.0366 13.0982C21.7836 13.0469 20.4379 13.02 19.0016 13.02ZM23.805 13.1338C23.772 13.1359 23.7411 13.1505 23.7185 13.1746C23.6959 13.1987 23.6833 13.2305 23.6833 13.2635C23.6833 13.2965 23.6959 13.3283 23.7185 13.3524C23.7411 13.3765 23.772 13.3911 23.805 13.3932C24.2515 13.4161 24.6828 13.4431 25.1024 13.473C25.1368 13.4754 25.1708 13.464 25.1968 13.4414C25.2229 13.4188 25.2389 13.3868 25.2413 13.3524C25.2437 13.318 25.2324 13.284 25.2098 13.2579C25.1872 13.2319 25.1551 13.2159 25.1207 13.2135C24.6995 13.1835 24.2665 13.1567 23.8182 13.1338C23.8138 13.1335 23.8094 13.1335 23.805 13.1338ZM25.8763 13.2734C25.8426 13.275 25.8108 13.2897 25.7876 13.3143C25.7645 13.3389 25.7519 13.3716 25.7524 13.4054C25.7529 13.4392 25.7666 13.4714 25.7905 13.4953C25.8144 13.5192 25.8466 13.5329 25.8804 13.5334C25.9675 13.5408 26.0566 13.5473 26.1399 13.5547C26.1569 13.5563 26.174 13.5544 26.1903 13.5493C26.2066 13.5443 26.2218 13.536 26.2349 13.5251C26.248 13.5141 26.2588 13.5007 26.2667 13.4856C26.2747 13.4705 26.2795 13.4539 26.2811 13.4369C26.2826 13.4199 26.2808 13.4028 26.2757 13.3865C26.2706 13.3702 26.2623 13.355 26.2514 13.3419C26.2405 13.3288 26.227 13.318 26.2119 13.3101C26.1968 13.3021 26.1803 13.2973 26.1632 13.2957C26.077 13.2881 25.9878 13.2816 25.9027 13.2744C25.8984 13.2739 25.8939 13.2735 25.8895 13.2734C25.8851 13.2732 25.8807 13.2732 25.8763 13.2734ZM17.0546 15.88C17.0373 15.8796 17.0201 15.8827 17.0039 15.889C16.9878 15.8954 16.9731 15.9049 16.9607 15.917C16.9483 15.9291 16.9385 15.9436 16.9317 15.9595C16.925 15.9755 16.9216 15.9927 16.9216 16.01V21.99C16.9215 22.0128 16.9275 22.0353 16.9389 22.055C16.9503 22.0748 16.9667 22.0913 16.9865 22.1027C17.0063 22.1141 17.0287 22.1201 17.0515 22.1201C17.0744 22.1202 17.0968 22.1142 17.1166 22.1027L22.3166 19.1127C22.3364 19.1013 22.3529 19.0849 22.3643 19.0651C22.3758 19.0453 22.3818 19.0229 22.3818 19C22.3818 18.9771 22.3758 18.9547 22.3643 18.9349C22.3529 18.9151 22.3364 18.8987 22.3166 18.8873L17.1166 15.8973C17.0977 15.8864 17.0764 15.8805 17.0546 15.88ZM17.1816 16.235L21.9905 19L17.1816 21.765V16.235Z" fill="#070707"/>
</svg>
